:version 1.10
:name ASF
:units
  mass 1
  length 1
  angle deg
:documentation
  ASF file generated by Kaydara
:root
  axis xyz
  order  tx ty tz rx ry rz
  position 0 0 0
  orientation 0 0 0
:bonedata
  begin
    id 1
    name RightUpLegDummy
    direction -0.718183 -0.695806 0.00816078
    length 4.904
    axis 0 0 0 xyz
  end
  begin
    id 2
    name RightUpLeg
    direction -0.0736652 -0.994202 0.0783343
    length 17.4976
    axis -2.72909 -3.00389 -4.00133 xyz
    dof rx ry rz
  end
  begin
    id 3
    name RightLeg
    direction -0.0389037 -0.994596 -0.0962598
    length 16.5821
    axis 3.95836 -18.5909 -4.46993 xyz
    dof rx ry rz
  end
  begin
    id 4
    name RightFoot
    direction -0.311643 -0.412678 0.855906
    length 3.77069
    axis -1.99483 -18.8351 -3.27644 xyz
    dof rx ry rz
  end
  begin
    id 5
    name RightToes
    direction -0.317852 0.0389852 0.947339
    length 3.85082
    axis -2.00228 -18.1713 -3.25211 xyz
    dof rx ry rz
  end
  begin
    id 6
    name SpineDummy
    direction 8.3039e-015 1 4.44677e-016
    length 4.6813
    axis 0 0 0 xyz
  end
  begin
    id 7
    name Spine
    direction -0.000262373 0.999988 0.00493267
    length 10.1015
    axis -0.00246081 0.00062579 0.0150362 xyz
    dof rx ry rz
  end
  begin
    id 8
    name Spine1
    direction 0 0 0
    length 0
    axis -0.00349562 0.000650293 0.0196666 xyz
    dof rx ry rz
  end
  begin
    id 9
    name HEadDummy
    direction -0.000343232 0.999999 0.00123745
    length 3.43865
    axis -0.00349562 0.000650293 0.0196666 xyz
  end
  begin
    id 10
    name HEad
    direction -0.0461221 0.980933 0.188796
    length 5.12695
    axis -0.00351404 -7.04812 0.0199272 xyz
    dof rx ry rz
  end
  begin
    id 11
    name LeftShoulder1Dummy
    direction 0.998904 -0.0399089 -0.0244534
    length 3.5433
    axis -0.00349562 0.000650293 0.0196666 xyz
  end
  begin
    id 12
    name LeftShoulder1
    direction 0.99951 1.64443e-005 0.0312999
    length 4.05031
    axis -0.00349562 0.000650293 0.0196666 xyz
    dof rx ry rz
  end
  begin
    id 13
    name LeftArm
    direction 0.984791 0.0515299 0.165927
    length 12.9126
    axis -64.823 -10.7743 5.20463 xyz
    dof rx ry rz
  end
  begin
    id 14
    name LeftForeArm
    direction 0.984968 0.0534808 0.16425
    length 10.8596
    axis -30.0462 -7.70601 1.87451 xyz
    dof rx ry rz
  end
  begin
    id 15
    name LeftHand
    direction 0.975871 0.0289682 0.216418
    length 6.62295
    axis -20.1348 -6.98077 1.86072 xyz
    dof rx ry rz
  end
  begin
    id 16
    name RightShoulderDummy
    direction -0.998877 -0.0405946 -0.0244307
    length 3.5433
    axis -0.00349562 0.000650293 0.0196666 xyz
  end
  begin
    id 17
    name RightShoulder
    direction -0.998933 -0.0249743 -0.0388558
    length 4.05031
    axis -0.0205316 -4.02113 1.41395 xyz
    dof rx ry rz
  end
  begin
    id 18
    name RightArm
    direction -0.997559 0.068664 0.0127103
    length 12.9638
    axis -67.3882 1.84188 -6.15987 xyz
    dof rx ry rz
  end
  begin
    id 19
    name RightForeArm
    direction -0.991508 0.0912848 0.0926241
    length 10.8312
    axis -22.1975 3.41087 -4.28711 xyz
    dof rx ry rz
  end
  begin
    id 20
    name RightHand
    direction -0.989262 0.0600788 0.133232
    length 6.57864
    axis -12.2911 2.17515 -4.39675 xyz
    dof rx ry rz
  end
  begin
    id 21
    name LeftUpLegDummy
    direction 0.718183 -0.695806 0.00816078
    length 4.904
    axis 0 0 0 xyz
  end
  begin
    id 22
    name LeftUpLeg
    direction 0.0831398 -0.99469 0.0606531
    length 17.4976
    axis -1.71016 2.29552 4.63832 xyz
    dof rx ry rz
  end
  begin
    id 23
    name LeftLeg
    direction 0.0498442 -0.991778 -0.117862
    length 16.5821
    axis 5.13757 15.5727 5.13348 xyz
    dof rx ry rz
  end
  begin
    id 24
    name LeftFoot
    direction 0.269026 -0.433896 0.85986
    length 3.77069
    axis -0.576502 15.6961 4.10267 xyz
    dof rx ry rz
  end
  begin
    id 25
    name LeftToes
    direction 0.277311 0.0251143 0.960452
    length 3.85048
    axis -0.576502 15.6961 4.10267 xyz
    dof rx ry rz
  end
:hierarchy
  begin
    root RightUpLegDummy SpineDummy LeftUpLegDummy
    RightUpLegDummy RightUpLeg
    RightUpLeg RightLeg
    RightLeg RightFoot
    RightFoot RightToes
    SpineDummy Spine
    Spine Spine1
    Spine1 HEadDummy LeftShoulder1Dummy RightShoulderDummy
    HEadDummy HEad
    LeftShoulder1Dummy LeftShoulder1
    LeftShoulder1 LeftArm
    LeftArm LeftForeArm
    LeftForeArm LeftHand
    RightShoulderDummy RightShoulder
    RightShoulder RightArm
    RightArm RightForeArm
    RightForeArm RightHand
    LeftUpLegDummy LeftUpLeg
    LeftUpLeg LeftLeg
    LeftLeg LeftFoot
    LeftFoot LeftToes
  end

:SAMPLES-PER-SECOND 30
:FULLY-SPECIFIED
:DEGREES
1
root  -3.24174 40.4468 84.4765 178.764 7.65271 -179.532
RightUpLeg  -0.47035 -0.613205 1.50693
RightLeg  4.63937 -3.48436 -0.559249
RightFoot  -2.74937 -0.0014405 0.0556744
RightToes  -5.82073e-011 -3.18055e-015 -2.98177e-016
Spine  -1.69894 1.38966 0.514999
Spine1  10.4108 1.23996 1.79223
HEad  -14.1561 3.08013 -3.85946
LeftShoulder1  -3.88251e-019 9.70628e-020 -3.87848e-018
LeftArm  -24.506 52.7883 -71.0387
LeftForeArm  9.61953 -10.4978 -3.69697
LeftHand  -0.780513 -3.1796 11.2753
RightShoulder  7.90577 10.6959 37.05
RightArm  9.17831 -41.3711 16.7267
RightForeArm  15.1916 16.2826 -6.93536
RightHand  -1.1848 2.56876 -17.0087
LeftUpLeg  -0.846339 -4.23837 -2.39112
LeftLeg  5.79029 7.94672 5.27517
LeftFoot  -3.53367 0.168306 -2.18177
LeftToes  -3.44176e-011 4.05998e-011 -5.21293e-012
2
root  -3.24114 40.4474 84.4669 178.764 7.75006 -179.538
RightUpLeg  -0.452488 -0.600947 1.50743
RightLeg  4.61029 -3.39305 -0.55219
RightFoot  -2.74663 0.000552979 0.0352408
RightToes  -5.82073e-011 -3.18055e-015 -2.98177e-016
Spine  -1.72306 1.44045 0.611465
Spine1  10.4653 1.34511 1.58291
HEad  -14.4872 3.03914 -3.79128
LeftShoulder1  -3.88251e-019 9.70628e-020 -3.87848e-018
LeftArm  -24.6261 52.6846 -71.0284
LeftForeArm  9.46187 -10.4695 -3.61607
LeftHand  -0.722353 -2.99022 10.6885
RightShoulder  7.94762 10.7168 37.2095
RightArm  9.07758 -41.3076 16.656
RightForeArm  15.3301 16.1824 -6.85882
RightHand  -1.18382 2.61477 -16.9007
LeftUpLeg  -0.782425 -4.18307 -2.38937
LeftLeg  5.73243 7.99818 5.24171
LeftFoot  -3.52705 0.165787 -2.15529
LeftToes  -3.44176e-011 4.05998e-011 -5.21293e-012
3
root  -3.23875 40.4491 84.4507 178.769 7.8898 -179.548
RightUpLeg  -0.434932 -0.582914 1.50689
RightLeg  4.56822 -3.26808 -0.542993
RightFoot  -2.73743 0.00671508 -0.0279234
RightToes  -5.82073e-011 -3.18055e-015 -2.98177e-016
Spine  -1.73979 1.50725 0.635387
Spine1  10.4778 1.45291 1.43948
HEad  -14.9633 3.10841 -3.71952
LeftShoulder1  -3.88251e-019 9.70628e-020 -3.87848e-018
LeftArm  -24.734 52.6657 -71.0387
LeftForeArm  9.17482 -10.6325 -3.51042
LeftHand  -0.640973 -2.67006 9.89637
RightShoulder  7.99322 10.7388 37.3848
RightArm  8.95831 -41.218 16.5613
RightForeArm  15.4953 16.0303 -6.72616
RightHand  -1.17715 2.61619 -16.8043
LeftUpLeg  -0.69193 -4.11128 -2.3871
LeftLeg  5.63598 8.06981 5.19122
LeftFoot  -3.52094 0.164516 -2.14193
LeftToes  -3.44176e-011 4.05998e-011 -5.21293e-012
4
root  -3.23665 40.4498 84.4372 178.787 7.98123 -179.555
RightUpLeg  -0.436955 -0.574811 1.5019
RightLeg  4.54812 -3.19012 -0.535737
RightFoot  -2.73115 0.00970728 -0.0585955
RightToes  -5.82073e-011 -3.18055e-015 -2.98177e-016
Spine  -1.76031 1.54158 0.495228
Spine1  10.4419 1.46389 1.55219
HEad  -15.2755 3.24058 -3.65532
LeftShoulder1  -3.88251e-019 9.70628e-020 -3.87848e-018
LeftArm  -24.7539 52.7884 -71.1228
LeftForeArm  9.05983 -10.9923 -3.45936
LeftHand  -0.607012 -2.67681 9.37638
RightShoulder  7.97427 10.7268 37.3185
RightArm  8.93779 -41.2642 16.6013
RightForeArm  15.4731 15.9877 -6.67023
RightHand  -1.16748 2.52478 -16.8536
LeftUpLeg  -0.646048 -4.06864 -2.38508
LeftLeg  5.5802 8.11801 5.15992
LeftFoot  -3.51323 0.164122 -2.13779
LeftToes  -3.44176e-011 4.05998e-011 -5.21293e-012
5
root  -3.23538 40.4501 84.4278 178.786 7.98933 -179.555
RightUpLeg  -0.426993 -0.584575 1.49613
RightLeg  4.56335 -3.17752 -0.531796
RightFoot  -2.74661 0.00584401 -0.0189945
RightToes  -5.82073e-011 -3.18055e-015 -2.98177e-016
Spine  -1.83141 1.52507 0.311723
Spine1  10.5014 1.40756 1.72145
HEad  -15.4474 3.24105 -3.41854
LeftShoulder1  -3.88251e-019 9.70628e-020 -3.87848e-018
LeftArm  -24.7168 52.9133 -71.2281
LeftForeArm  9.04872 -11.4413 -3.46632
LeftHand  -0.609801 -3.00376 9.04734
RightShoulder  7.90311 10.688 37.0544
RightArm  8.91937 -41.4579 16.8217
RightForeArm  15.5048 16.0713 -6.76154
RightHand  -1.17236 2.56872 -16.8337
LeftUpLeg  -0.630136 -4.05137 -2.3802
LeftLeg  5.58686 8.11055 5.1528
LeftFoot  -3.52047 0.163106 -2.12711
LeftToes  -3.44176e-011 4.05998e-011 -5.21293e-012
6
root  -3.23341 40.4502 84.4193 178.77 7.95366 -179.545
RightUpLeg  -0.395624 -0.605727 1.49447
RightLeg  4.58723 -3.19062 -0.518817
RightFoot  -2.77467 0.002556 0.0147092
RightToes  -5.82073e-011 -3.18055e-015 -2.98177e-016
Spine  -1.93692 1.48317 0.197768
Spine1  10.6619 1.36627 1.72696
HEad  -15.6059 3.08324 -2.84525
LeftShoulder1  -3.88251e-019 9.70628e-020 -3.87848e-018
LeftArm  -24.6482 52.9596 -71.2517
LeftForeArm  8.84936 -11.8997 -3.49161
LeftHand  -0.601321 -3.11027 8.8118
RightShoulder  7.85858 10.6648 36.8862
RightArm  8.80213 -41.6102 17.0331
RightForeArm  15.8448 16.1639 -6.92663
RightHand  -1.19231 2.84162 -16.5683
LeftUpLeg  -0.616281 -4.04195 -2.36739
LeftLeg  5.61476 8.06277 5.15723
LeftFoot  -3.5502 0.164385 -2.14055
LeftToes  -3.44176e-011 4.05998e-011 -5.21293e-012
7
root  -3.23015 40.4503 84.4106 178.796 7.9778 -179.526
RightUpLeg  -0.405271 -0.609593 1.50712
RightLeg  4.58586 -3.16104 -0.489757
RightFoot  -2.7829 0.00591081 -0.0196792
RightToes  -5.82073e-011 -3.18055e-015 -2.98177e-016
Spine  -2.01922 1.48004 0.121146
Spine1  10.7298 1.38748 1.64429
HEad  -15.6955 2.90168 -2.02524
LeftShoulder1  -3.88251e-019 9.70628e-020 -3.87848e-018
LeftArm  -24.5634 52.986 -71.2025
LeftForeArm  8.50549 -12.257 -3.51258
LeftHand  -0.577007 -2.80196 8.78503
RightShoulder  7.88094 10.6786 36.966
RightArm  8.7255 -41.5715 17.009
RightForeArm  16.1678 16.2028 -7.03466
RightHand  -1.19652 3.02823 -16.2692
LeftUpLeg  -0.632677 -4.01634 -2.33941
LeftLeg  5.62976 8.05393 5.16143
LeftFoot  -3.57276 0.167183 -2.16996
LeftToes  -3.44176e-011 4.05998e-011 -5.21293e-012
8
root  -3.22746 40.4505 84.4005 178.885 8.11098 -179.497
RightUpLeg  -0.487539 -0.56483 1.54962
RightLeg  4.56244 -3.07843 -0.472961
RightFoot  -2.76641 0.010049 -0.0620981
RightToes  -5.82073e-011 -3.18055e-015 -2.98177e-016
Spine  -2.08431 1.54619 0.00333182
Spine1  10.6283 1.44538 1.69122
HEad  -15.576 2.71401 -1.23285
LeftShoulder1  -3.88251e-019 9.70628e-020 -3.87848e-018
LeftArm  -24.4838 53.0499 -71.1906
LeftForeArm  8.31787 -12.4004 -3.54373
LeftHand  -0.565987 -2.53048 8.91587
RightShoulder  7.92979 10.7074 37.1429
RightArm  8.86179 -41.3862 16.7702
RightForeArm  16.0595 16.2276 -7.03965
RightHand  -1.1744 2.92791 -16.1596
LeftUpLeg  -0.688844 -3.9527 -2.29458
LeftLeg  5.63138 8.1237 5.15079
LeftFoot  -3.57552 0.165196 -2.14908
LeftToes  -3.44176e-011 4.05998e-011 -5.21293e-012
9
root  -3.22694 40.4512 84.3857 178.968 8.25998 -179.466
RightUpLeg  -0.55933 -0.491471 1.60498
RightLeg  4.5345 -3.01172 -0.487962
RightFoot  -2.754 0.00800709 -0.0411673
RightToes  -5.82073e-011 -3.18055e-015 -2.98177e-016
Spine  -2.17726 1.625 -0.161484
Spine1  10.5129 1.47172 1.90747
HEad  -15.2831 2.41813 -0.675423
LeftShoulder1  -3.88251e-019 9.70628e-020 -3.87848e-018
LeftArm  -24.4374 53.1315 -71.2645
LeftForeArm  8.33043 -12.3631 -3.592
LeftHand  -0.572362 -2.61908 8.91516
RightShoulder  7.95837 10.7263 37.2406
RightArm  9.08224 -41.1668 16.5295
RightForeArm  15.8133 16.2444 -6.98578
RightHand  -1.1651 2.89091 -16.1032
LeftUpLeg  -0.717271 -3.87469 -2.25251
LeftLeg  5.61177 8.203 5.13023
LeftFoot  -3.5933 0.160418 -2.09885
LeftToes  -3.44176e-011 4.05998e-011 -5.21293e-012
10
root  -3.22821 40.4525 84.3671 178.991 8.31128 -179.451
RightUpLeg  -0.540317 -0.467966 1.62127
RightLeg  4.49799 -2.9889 -0.485432
RightFoot  -2.76019 0.00374063 0.00256626
RightToes  -5.82073e-011 -3.18055e-015 -2.98177e-016
Spine  -2.26184 1.64108 -0.335394
Spine1  10.4637 1.42537 2.16039
HEad  -14.9738 2.06551 -0.409452
LeftShoulder1  -3.88251e-019 9.70628e-020 -3.87848e-018
LeftArm  -24.4784 53.2139 -71.3745
LeftForeArm  8.35531 -12.2881 -3.62191
LeftHand  -0.572859 -2.76658 8.75952
RightShoulder  7.96591 10.7349 37.2642
RightArm  9.12146 -40.9683 16.4259
RightForeArm  15.9693 16.2004 -6.9241
RightHand  -1.19963 3.22431 -15.9543
LeftUpLeg  -0.675094 -3.84192 -2.2438
LeftLeg  5.55983 8.22444 5.11497
LeftFoot  -3.62797 0.16257 -2.12148
LeftToes  -3.44176e-011 4.05998e-011 -5.21293e-012
11
root  -3.23101 40.4547 84.3507 178.989 8.29501 -179.462
RightUpLeg  -0.485145 -0.53548 1.57015
RightLeg  4.46159 -2.93779 -0.415822
RightFoot  -2.77515 0.00379605 0.00199819
RightToes  -5.82073e-011 -3.18055e-015 -2.98177e-016
Spine  -2.27053 1.60291 -0.491753
Spine1  10.3776 1.3379 2.36239
HEad  -14.7154 1.85327 -0.401144
LeftShoulder1  -3.88251e-019 9.70628e-020 -3.87848e-018
LeftArm  -24.634 53.3091 -71.4716
LeftForeArm  8.35776 -12.2356 -3.60199
LeftHand  -0.560706 -2.62315 8.73347
RightShoulder  7.96294 10.7375 37.2658
RightArm  9.03372 -40.8329 16.4326
RightForeArm  16.2631 16.1385 -6.885
RightHand  -1.23951 3.5384 -15.915
LeftUpLeg  -0.6188 -3.86085 -2.27253
LeftLeg  5.49634 8.22903 5.1118
LeftFoot  -3.62485 0.168576 -2.18461
LeftToes  -3.44176e-011 4.05998e-011 -5.21293e-012
12
root  -3.23595 40.4562 84.3378 179.009 8.2932 -179.483
RightUpLeg  -0.477865 -0.63218 1.49285
RightLeg  4.45966 -2.83789 -0.329283
RightFoot  -2.79644 0.00640025 -0.0246962
RightToes  -5.82073e-011 -3.18055e-015 -2.98177e-016
Spine  -2.25658 1.56935 -0.601845
Spine1  10.2608 1.26642 2.51729
HEad  -14.4938 1.81342 -0.535791
LeftShoulder1  -3.88251e-019 9.70628e-020 -3.87848e-018
LeftArm  -24.7969 53.3903 -71.5352
LeftForeArm  8.41317 -12.1686 -3.566
LeftHand  -0.553527 -2.36283 8.91422
RightShoulder  7.9561 10.7316 37.2374
RightArm  9.19704 -40.8048 16.4506
RightForeArm  15.8824 16.2222 -6.90223
RightHand  -1.2235 3.28905 -16.1516
LeftUpLeg  -0.59997 -3.87812 -2.31058
LeftLeg  5.45088 8.25757 5.10266
LeftFoot  -3.58819 0.165766 -2.15506
LeftToes  -3.44176e-011 4.05998e-011 -5.21293e-012
